PathFileType	4	(X/Y/Z)	T1_P1_Vision_NoMovement_1_0-649.trc
DataRate	CameraRate	NumFrames	NumMarkers	Units	OrigDataRate	OrigDataStartFrame	OrigNumFrames
60	60	7	27	m	60	486	649
Frame#	Time	RHip			RKnee			RAnkle			RBigToe			RSmallToe			RHeel			LHip			LKnee			LAnkle			LBigToe			LSmallToe			LHeel			Neck			Head			Nose			RShoulder			RElbow			RWrist			RThumb			RIndex			RPinky			LShoulder			LElbow			LWrist			LThumb			LIndex			LPinky		
		X1	Y1	Z1	X2	Y2	Z2	X3	Y3	Z3	X4	Y4	Z4	X5	Y5	Z5	X6	Y6	Z6	X7	Y7	Z7	X8	Y8	Z8	X9	Y9	Z9	X10	Y10	Z10	X11	Y11	Z11	X12	Y12	Z12	X13	Y13	Z13	X14	Y14	Z14	X15	Y15	Z15	X16	Y16	Z16	X17	Y17	Z17	X18	Y18	Z18	X19	Y19	Z19	X20	Y20	Z20	X21	Y21	Z21	X22	Y22	Z22	X23	Y23	Z23	X24	Y24	Z24	X25	Y25	Z25	X26	Y26	Z26	X27	Y27	Z27
487	8.116666666666667	-66.19764961696585	3789.5286709259067	-546.2662884346627	289.7860133636164	3975.477929499582	-526.0357721365143	639.2327627719542	4153.775819871944	-532.3528843363308	694.6474159955482	4014.040502637381	-455.92420917896936	688.7050038524224	3965.695474924491	-497.07162240022933	681.1936919195063	4197.65638699843	-532.6092832883952	-102.36057303394357	3906.2474589452836	-364.43797459886423	234.2680219278905	3972.878736046057	-365.79333100164683	620.5160060759293	4251.891699765138	-455.5679637192585	670.1806424419286	3996.313437496023	-350.07575463971915	674.7237510843419	4122.754535159377	-342.6434920665709	669.8030846154503	4295.931799335396	-476.4431753974469	-675.2026346001152	3663.0159534059467	-498.8582700223934	-916.3987865181447	3539.5048336263453	-431.5975454187038	-778.4170959284737	3553.6950838071743	-403.32860716470816	-555.500740974748	3670.950775651458	-665.4950146380158	-278.6774536893293	3694.901859633177	-689.0208538073513	-22.95914418863892	3651.592376153198	-599.9929751401137	85.29126649594744	3750.0875143281964	-553.1932476963007	113.81567844808843	3746.7641558109835	-562.1033933962567	105.42520423235547	3735.6939354294145	-589.1679950671703	-618.8149305606502	3790.700664002536	-384.00522476935316	-381.3630720069079	3984.877523447876	-346.4538149635815	-125.83884811081377	3962.4035306635724	-262.78971637074716	7.247995319010622	3869.5502734595557	-273.0225157123897	21.408158545790865	3867.7676189006766	-216.99204776212545	-0.8042139885373019	3976.2830671770357	-216.32054045074796
488	8.133333333333333	-66.09786454984784	3789.1410798148827	-546.0683577410223	290.7018299122329	3978.428766175481	-525.9986686721224	639.1864520846876	4153.639803903096	-532.4651473128313	693.5066948224851	4040.272138548891	-462.6943762463055	687.049727639087	3990.696188821375	-501.3396571989907	686.825129282948	4196.3036720431055	-531.8340818848695	-102.35955097462939	3906.4374556087528	-364.57006909813566	236.06177447836257	4001.30267998205	-370.9062025593547	624.2596285489836	4273.4103375657705	-464.0761208249926	664.5869262906533	3993.184269480719	-350.3811902327919	673.7503356983067	4119.156823666121	-342.62231657654775	675.6800852191157	4320.016748779403	-492.91495430443734	-669.520075847687	3664.2025597096335	-498.2197031881318	-916.3570171754604	3539.68353938333	-431.6559061228336	-778.5107914427022	3553.902393192679	-403.44309767973834	-553.7784878701807	3653.4678563563084	-650.5598389013131	-278.6686023807984	3694.678479510757	-688.9678547127359	-23.464418416716285	3651.5143988911673	-594.3394936778408	85.1927802153386	3750.451497674841	-553.3450464850912	118.5765347155343	3749.325198590495	-561.8916322417795	104.72446112636077	3708.7927571265227	-582.564504486481	-614.5705925141964	3793.544030111058	-384.9941354320152	-381.238889501093	3984.659330627633	-346.4178689947047	-125.7558398308402	3962.538870521056	-263.0071676568014	16.173598157945705	3876.117323253673	-276.00934259896144	20.967788292162343	3849.858690047355	-205.46655383180345	3.688458050796833	3979.181867117719	-217.62398015831013
489	8.15	-66.11529330528458	3789.120420266694	-546.2088044471512	282.7804831731912	3945.756904843889	-519.7330990084052	639.1098824849606	4153.309518160413	-532.2773619970949	699.6064728858399	4044.100116005499	-462.32065924880146	689.5244101378662	3965.526380875572	-503.04897235029125	681.2531262138469	4197.071601182396	-532.4796480542205	-107.33218811316407	3903.2072295937205	-363.3237685626591	235.94922081134976	4001.5972662145173	-371.1167205495647	624.1235358991615	4273.288095926393	-464.02335388608606	670.4461642564437	3996.141027094947	-349.92567049489577	674.1507967882152	4119.174861415578	-342.8123859661216	675.7055878826126	4319.740018273153	-492.81986555561394	-669.5141282657162	3664.176719580433	-498.2246865220948	-916.4054062459945	3539.654286482858	-431.68472071775767	-778.6264769884622	3554.1999592158268	-403.5312006684126	-553.8177377406645	3653.423986865635	-650.515697313082	-278.6075198927532	3694.553140564745	-688.8918147968492	-22.726677240756892	3651.512960895376	-600.0227142650805	85.23895644514688	3750.488256341803	-553.5204439359582	113.73396876402164	3747.186475575096	-562.5286567322458	104.8260608938226	3708.5301550648896	-582.6521518893537	-614.608846327597	3793.2883350198813	-384.9784151080629	-381.3285100597696	3984.6988652922305	-346.4015128510549	-125.82670526316758	3962.5832053207405	-262.989074660127	16.361240667649618	3876.190866578352	-275.94584490472926	21.377095439722495	3850.261888507551	-205.41050518254826	-1.7306302279384052	3976.8174062588982	-217.7717663559286
490	8.166666666666666	-66.15999260492119	3789.003034247376	-546.1713697879844	288.6589412281368	3949.5490772433186	-521.6118236107532	638.9177163322638	4153.108433655856	-532.2437383891657	683.1693213237149	3989.6343945998638	-442.0655585023384	682.8237181903305	3960.8641494604476	-500.7034715486	681.0098293982943	4196.87284466712	-532.4853356026565	-107.35326673014971	3903.2223260489723	-363.3541249756718	235.7951948097127	4001.5957867949496	-371.2116693508399	624.4696885613812	4273.2508621869865	-463.83057153460084	671.2491713378109	3994.879183430092	-354.4537252426835	680.3951319007252	4122.360604327434	-342.17264205940205	681.129933933691	4319.800139876348	-492.4861425478243	-669.5117406776358	3664.255052019311	-498.22977847053556	-916.4281747996286	3539.591801401332	-431.6265190012938	-778.5537908575583	3553.9763623097547	-403.490792248323	-553.8080715124167	3653.520250117624	-650.5276299575828	-278.7721268797933	3694.73305973192	-689.0608948943161	-22.823995210594816	3651.673329523467	-600.0517008266182	85.15663203676033	3750.380828858131	-553.4446778275707	113.65763356622313	3747.0125802822527	-562.5764364876851	104.87504193650948	3709.1610175511205	-582.9151827439963	-614.5723491150943	3793.502520368189	-385.1211651669336	-381.34447004603726	3984.723073635956	-346.3077073933475	-125.78826818747486	3962.557516832979	-263.01485919077567	16.331778322243085	3876.2287858595305	-276.05453411592333	21.12400857903438	3849.9269483175563	-205.43266907604996	-1.58585120679787	3976.5900767310013	-217.9015387273614
491	8.183333333333334	-66.1134561862466	3789.0223350103684	-545.9926437131941	289.4569408397951	3950.049253168163	-527.6333008938619	645.4722468306567	4155.928578451091	-531.464588476349	694.8598409730761	4014.2424291712136	-456.0613980928576	689.8110414881587	3966.2788975872922	-503.7657422345316	680.7753470600737	4196.066755738036	-532.2931183219356	-107.31592364462946	3902.925682366214	-363.1368195562563	235.93200611654268	4001.199545906185	-370.9622785645525	620.7790364066933	4231.282631650545	-434.9326892086475	671.4618044726255	3997.343535649902	-350.4015491061148	687.822111327699	4127.138294089922	-344.19755468038807	670.2713378983121	4296.146145991018	-476.4029244065364	-675.1690496024491	3662.6074772060338	-498.6009074672067	-916.4608682286522	3539.8958020919554	-431.7490201736854	-778.5743835467124	3553.7810358125403	-403.36140332381257	-553.7705190916946	3653.680576391185	-650.6667101069052	-278.64057930352385	3694.749724922801	-688.9205600134477	-22.832660435079372	3651.5191110413944	-600.0049558600971	85.22159831070532	3750.351811888063	-553.4554794885643	113.73846894704916	3746.9433157987787	-562.5625746195536	104.91611509432066	3709.1164325584027	-582.8575870851456	-614.6638485881067	3793.2013393453294	-385.0486162827243	-381.3721524427969	3984.562948103521	-346.16258370092925	-125.7556077758693	3962.5886469788115	-262.9692651257384	16.175907484287585	3876.315933234383	-276.0133444072239	20.93917498470807	3850.3605984607216	-205.4669617067366	3.7125700816767178	3979.51701416354	-217.66346390166933
492	8.2	-66.10504605457831	3789.051228146615	-546.006507282097	289.4298914375919	3949.8250973127797	-527.7025377084326	645.5232154548892	4155.9338273423655	-531.4418705132532	699.5446505401612	4043.451454250089	-462.2952159250867	689.6693497506263	3965.1301626817976	-503.1534449654876	680.9356955026665	4196.407510559273	-532.4377793286562	-107.29151410830394	3902.7620313397106	-363.0181764152899	236.37871261987792	4000.70843534875	-376.27050851192877	624.4875898822154	4249.422052396454	-447.5266038943339	670.9743907716563	3994.9719041124486	-354.09599645745266	680.2523524173605	4122.630451684873	-341.9914329829229	680.672827977452	4318.950861159778	-492.02162964257354	-675.1661025843629	3660.6574507954424	-491.81876763141037	-916.4610892569135	3539.9528012663145	-431.7403876251752	-778.5594999610107	3553.8644276378054	-403.36769834177744	-553.7882811379526	3653.6799990822014	-650.6715683057455	-278.7077491970942	3694.7941168886155	-689.0091362392694	-22.917359499284068	3651.502239623656	-600.0226743085171	85.2837228890435	3750.479205703233	-553.5531834170433	113.7189208675692	3747.090089026054	-562.6568541858663	105.30675761999197	3707.8561291807137	-587.3432053315328	-614.6665660314438	3793.208831774676	-385.04320812564174	-381.3051982717705	3984.564827826532	-346.26077792939543	-125.6666934669094	3962.2577089731003	-262.7952963694784	16.317951674118195	3876.1458204554806	-275.9503337775453	21.27718206442047	3850.0842570997556	-205.39736397263732	3.923195408794783	3979.8178042380514	-217.84467031395903
493	8.216666666666667	-66.02116560796532	3789.090209576248	-546.0096722098226	290.71466880109523	3978.622605182629	-527.9328001883035	639.4449290635025	4153.990130875219	-532.5629518871024	694.747564261825	4014.1321746649232	-455.8940792231466	688.856907426167	3965.4374555162153	-496.9672868986776	682.2339230231707	4195.969943542956	-537.9611121241928	-102.20665401982497	3906.5664154535693	-364.64243174536	236.14358089070998	4001.2730499255713	-370.9313322147916	626.9686309188056	4256.174117794631	-457.80333849300507	660.3518772118318	3965.172678409549	-345.92431259962683	681.3469982116839	4121.684075593404	-344.15430818172763	683.4969428348937	4326.9358335923125	-501.71455573932946	-675.2611605841422	3660.814263977407	-491.8344178518726	-916.5344031452724	3539.860812405303	-431.7185335665875	-778.6821946254445	3553.976196914443	-403.3944277452913	-558.2657668253767	3652.752577775841	-650.6365981576341	-279.00109271740484	3694.813204487194	-689.348161280686	-22.86922863249891	3651.51534038018	-600.1351186876971	85.3925516995202	3750.813380591197	-553.9340330444512	118.56954956165616	3749.549589141164	-562.67869603635	105.05053794951708	3708.685992379017	-582.7250187109029	-618.7610074163028	3790.099158382359	-383.68919919874054	-381.2145811593925	3984.4388763213183	-346.2650797248193	-125.76133507093648	3962.401837862567	-262.8702071779815	12.61861809468051	3876.655446885424	-281.9183297260831	21.103304010830968	3850.2801724700967	-205.54399377623156	3.824059591081868	3980.241850949929	-218.0173747268694
